<svg class="vctheme-svg" width="626" height="47" viewBox="0 0 626 47" fill="none" xmlns="http://www.w3.org/2000/svg"><g clip-path="url(#clip0_1208_207)"><path d="M10.5586 31.7446L5.94172 44.8456H0L15.593 1.23438H22.7953L38.1555 44.8536H31.9167L27.4202 31.7526H10.5586V31.7446ZM19.142 7.21631L11.9396 27.084H25.8545L19.1339 7.21631H19.142Z" fill="black"></path><path d="M49.3644 39.9448H70.9633V44.8536H43.792V1.23438H49.3724V39.9448H49.3644Z" fill="black"></path><path d="M83.3206 39.9448H109.119V44.8536H77.7402V1.23438H108.035V6.14324H83.3206V20.0851H107.136V24.9939H83.3206V39.9528V39.9448Z" fill="black"></path><path d="M140.731 14.0334C140.674 8.29172 136.772 5.17664 129.811 5.17664C123.933 5.17664 120.031 8.10754 120.031 12.5359C120.031 15.8833 121.95 17.5649 127.233 18.9983L138.209 21.9292C144.151 23.5468 147.507 27.4948 147.507 32.8761C147.507 36.6478 145.645 40.5317 142.706 42.87C139.888 45.0241 135.624 46.2173 130.405 46.2173C123.749 46.2173 118.706 44.1273 115.711 39.9952C113.969 37.6008 113.19 34.9662 113.134 30.9622H118.409C118.353 33.6529 119.067 35.7509 120.689 37.6648C122.793 40.1793 125.973 41.3165 130.766 41.3165C134.307 41.3165 137.069 40.7159 138.804 39.4586C140.666 38.1453 141.919 35.7509 141.919 33.4126C141.919 30.0012 139.462 27.7911 133.882 26.3496L123.026 23.4748C117.269 21.9773 114.451 18.63 114.451 13.3047C114.451 5.40887 120.392 0.5 129.987 0.5C137.366 0.5 142.465 3.13461 144.866 8.15559C145.829 10.1896 146.006 11.0304 146.006 14.0174H140.723L140.731 14.0334Z" fill="black"></path><path d="M180.074 14.0334C180.018 8.29172 176.116 5.17664 169.154 5.17664C163.277 5.17664 159.375 8.10754 159.375 12.5359C159.375 15.8833 161.294 17.5649 166.577 18.9983L177.553 21.9292C183.495 23.5468 186.851 27.4948 186.851 32.8761C186.851 36.6478 184.988 40.5317 182.05 42.87C179.231 45.0241 174.968 46.2173 169.749 46.2173C163.092 46.2173 158.05 44.1273 155.055 39.9952C153.313 37.6008 152.534 34.9662 152.478 30.9622H157.753C157.697 33.6529 158.411 35.7509 160.033 37.6648C162.137 40.1793 165.316 41.3165 170.11 41.3165C173.651 41.3165 176.413 40.7159 178.147 39.4586C180.01 38.1453 181.263 35.7509 181.263 33.4126C181.263 30.0012 178.806 27.7911 173.225 26.3496L162.37 23.4748C156.613 21.9773 153.794 18.63 153.794 13.3047C153.794 5.40887 159.736 0.5 169.331 0.5C176.71 0.5 181.809 3.13461 184.21 8.15559C185.173 10.1896 185.35 11.0304 185.35 14.0174H180.066L180.074 14.0334Z" fill="black"></path><path d="M199.811 31.7446L195.194 44.8456H189.252L204.853 1.23438H212.055L227.415 44.8536H221.177L216.68 31.7526H199.827L199.811 31.7446ZM208.386 7.21631L201.192 27.084H215.106L208.386 7.21631Z" fill="black"></path><path d="M267 44.8456H260.705L238.086 9.48255V44.8456H232.803V1.23438H238.865L261.724 36.8937V1.23438H267.008V44.8536L267 44.8456Z" fill="black"></path><path d="M276.892 1.23438H293.745C304.842 1.23438 311.562 9.49056 311.562 23.016C311.562 36.5414 304.786 44.8536 293.745 44.8536H276.892V1.23438ZM292.79 39.9448C301.429 39.9448 305.99 34.139 305.99 23.072C305.99 12.0051 301.429 6.14324 292.79 6.14324H282.472V39.9448H292.79Z" fill="black"></path><path d="M326.015 44.8456H320.435V1.23438H340.588C349.228 1.23438 353.909 5.36647 353.909 12.9019C353.909 17.9309 351.926 20.8618 347.012 23.3123C351.749 25.3463 352.889 27.5004 352.953 34.6835C353.074 40.4893 353.491 42.0428 355.595 43.4763V44.8536H348.818C348.039 43.0598 347.558 40.4252 347.558 37.7346L347.614 33.8427C347.614 28.4614 345.398 26.067 340.42 26.067H326.023V44.8536L326.015 44.8456ZM339.512 21.1501C345.454 21.1501 348.096 18.8198 348.096 13.6147C348.096 11.0441 347.317 9.06614 345.815 7.80889C344.434 6.61571 342.636 6.13523 339.512 6.13523H326.015V21.1501H339.512Z" fill="black"></path><path d="M401.957 23.7306C401.957 30.8497 399.139 37.6084 394.401 41.6204C390.86 44.6153 386.179 46.2249 380.848 46.2249C368.193 46.2249 359.73 37.0719 359.73 23.3703C359.73 9.6687 368.242 0.515625 380.783 0.515625C393.325 0.515625 401.957 9.6687 401.957 23.7306ZM365.303 23.3703C365.303 34.141 371.485 41.3161 380.84 41.3161C390.194 41.3161 396.376 34.133 396.376 23.6025C396.376 12.5355 390.258 5.41648 380.783 5.41648C371.309 5.41648 365.303 12.5996 365.303 23.3623V23.3703Z" fill="black"></path><path d="M463.325 45.0878H459.784L458.403 39.2821C454.084 44.0067 449.402 46.2249 443.469 46.2249C431.65 46.2249 423.436 36.8957 423.436 23.4904C423.436 15.6506 426.254 8.89193 431.352 4.70378C434.773 1.89299 439.093 0.515625 444.432 0.515625C454.453 0.515625 461.165 5.60067 462.731 14.4574H457.03C455.834 8.83587 451.032 5.42449 444.376 5.42449C435.134 5.42449 429.016 12.4875 429.016 23.1941C429.016 28.5754 430.758 33.7806 433.633 36.8957C436.21 39.7065 440.233 41.3241 444.673 41.3241C452.654 41.3241 458.411 35.7025 458.411 27.9188V26.7176H445.091V21.8087H463.325V45.0798V45.0878Z" fill="black"></path><path d="M479.095 44.8456H473.458V1.23438H479.095V44.8536V44.8456Z" fill="black"></path><path d="M494.511 39.9448H516.11V44.8536H488.931V1.23438H494.511V39.9448Z" fill="black"></path><path d="M527.866 39.9448H549.465V44.8536H522.285V1.23438H527.866V39.9448Z" fill="black"></path><path d="M561.814 39.9448H587.612V44.8536H556.233V1.23438H586.528V6.14324H561.814V20.0851H585.629V24.9939H561.814V39.9528V39.9448Z" fill="black"></path><path d="M619.223 14.0334C619.167 8.29172 615.265 5.17664 608.303 5.17664C602.426 5.17664 598.523 8.10754 598.523 12.5359C598.523 15.8833 600.442 17.5649 605.726 18.9983L616.702 21.9292C622.644 23.5468 626 27.4948 626 32.8761C626 36.6478 624.137 40.5317 621.198 42.87C618.38 45.0241 614.116 46.2173 608.897 46.2173C602.241 46.2173 597.199 44.1273 594.196 39.9952C592.453 37.6008 591.674 34.9662 591.618 30.9622H596.901C596.845 33.6529 597.56 35.7509 599.182 37.6648C601.285 40.1793 604.465 41.3165 609.259 41.3165C612.8 41.3165 615.562 40.7159 617.296 39.4586C619.159 38.1453 620.419 35.7509 620.419 33.4126C620.419 30.0012 617.962 27.7911 612.382 26.3496L601.526 23.4748C595.769 21.9773 592.951 18.63 592.951 13.3047C592.951 5.40887 598.893 0.5 608.488 0.5C615.867 0.5 620.965 3.13461 623.366 8.15559C624.33 10.1896 624.506 11.0304 624.506 14.0174H619.223V14.0334Z" fill="black"></path></g><defs><clipPath id="clip0_1208_207"><rect width="626" height="45.7093" fill="white" transform="translate(0 0.515625)"></rect></clipPath></defs></svg>