<svg xmlns="http://www.w3.org/2000/svg" viewBox="0 0 385.2 39.7"><title></title><path d="M171.4.8H166c-.8 0-1.1.1-.4.5 1.1.7 1.9 2 1.8 8.7v21.1c-2-2.3-5.9-6.9-10-11.8-7-8.4-14.7-17.7-14.7-17.7-.3-.4-.6-.9-1-.9h-4.9c-1.1 0-1.3.2-.8.4 1.4.6 2.1 2.1 2.1 8.5v20.2c0 6.7-.8 8-1.8 8.6-.6.5-.4.5.4.5h5.6c.8 0 1.1-.1.4-.6-1.1-.7-1.9-1.9-1.8-8.7V5.9c1.2 1.3 6 7 11.2 13.3 8 9.6 17 20.3 17 20.3.4.4 1.1.2 1.1-.8v-29c0-6 .5-7.9 1.7-8.6.7-.2.5-.3-.5-.3m96.3 37.7c-1-.6-1.7-1.9-1.8-7.5V8.8c.1-5.7.8-6.9 1.8-7.5.6-.4.4-.5-.6-.5h-6.4c-1 0-1.2.1-.6.5 1 .6 1.7 1.9 1.8 7.5V31c-.1 5.7-.8 6.9-1.8 7.5-.6.4-.4.5.6.5h6.4c1 0 1.3 0 .6-.5M363.2.8h-5.5c-.8 0-1.1.1-.4.5 1.1.7 1.9 2 1.8 8.7v21.1c-2-2.3-5.9-6.9-10-11.8-7-8.4-14.7-17.7-14.7-17.7-.3-.4-.6-.9-1-.9h-4.9c-1.1 0-1.3.2-.8.4 1.4.6 2.1 2.1 2.1 8.5v20.2c0 6.7-.8 8-1.8 8.6-.6.5-.4.5.4.5h5.6c.8 0 1.1-.1.4-.6-1.1-.7-1.9-1.9-1.8-8.7V5.9c1.2 1.3 6 7 11.2 13.3 8 9.6 17 20.3 17 20.3.4.4 1.1.2 1.1-.8v-29c0-6 .5-7.9 1.7-8.6.8-.2.5-.3-.4-.3M34 29.3c-2.1 3.9-6.8 7-10.8 7.6-6.8 1-13.7-2.5-16.8-9.5-1.2-2.7-1.7-5.9-1.6-9.2.3-8.6 5.6-14.4 12.6-15.5 2.6-.4 5.3-.2 7.8.6 2 .6 4.2 1.8 5.6 3.4.6.7 1.2 1.6 1.7 2.5.3.5.4.9.7.8.4-.1.4-.5.4-.8.1-.7.1-4 0-4.4 0-.3-.1-.4-.6-.8-1.8-1.3-4.4-2.5-6.5-3.1-.9-.3-1.8-.4-2.8-.6-.8-.1-1.7-.2-2.5-.2s-1.6 0-2.4.1c-2.3.1-4.6.7-6.7 1.5-2.4.9-4.5 2.4-6.4 4.3-1 1-1.8 2-2.5 3.1-.1.1-.1.2-.2.2-.2.4-.5.7-.7 1.1-.2.4-.4.7-.6 1.1C.6 14-.1 16.8 0 19.8c0 .9.1 1.8.2 2.8 1.6 10.9 9 15.5 16.3 16.6 5.6.8 10.9-.3 15.7-3.3.8-.5 1.8-1.1 2.4-1.9.1-.1.4-4.3.3-5 .1-.6-.3-.8-.9.3M187.3 9.7c0-5.8-.6-7.7-1.8-8.3-.3-.1-.9-.6.6-.6 1 0 2.9.1 4.7.1h14.6c1.1 0 2-.2 2-.1.6-.1.8-.1.8.6L208 5c0 .7-.5.8-.7.3-1.6-2.8-9.4-2.3-12.5-2.3-2.2 0-3.3.1-3.4 1.1.1 12.1 0 11.6.1 11.7 0 .2.3.9 1.2.9 1.1 0 11.2 0 12.2-.2.6-.1.9.1.9.5v2.3c0 .9-.2.9-.8.5-.8-.6-2.7-1-4.1-.9h-8.7c-.7.1-.9.5-.9.8v13.7c0 2.4 1.2 3.3 2.7 3.7 1.8.4 7.7.6 10.8-.3 1.6-.5 3.4-1.4 4.1-2.5.5-.8.8-.8.7.2-.1 1-.4 3.1-.7 4.3-.1.6-.4.5-1.2.5-.6 0-9.2-.1-12.1-.1-2.6 0-8.5.2-9.5.2-.9 0-1.2-.1-.6-.6 1.1-.6 1.8-1.9 1.8-8.7V9.7zM302 21.8c.6 0 .6-.3.4-.7s-5.1-12.7-5.1-12.7c-.3-.7-.7-.3-.8-.2-.3.7-5 12.5-5.2 12.8-.1.2-.4.7.3.7l10.4.1zm-10.6 2.1c-.1 0-.2 0-.3.1-.2.1-.3.2-.4.5 0 .1-3.8 9.4-4.2 10.5-.6 1.7-.4 3.3.3 3.7.7.3.7.4 0 .4h-5.3c-.7 0-1.1 0-.4-.5 1.4-1 2.1-2.8 3-5.2 1-2.5 13-32.2 13.3-32.8.3-.8.9-.8 1.1-.2s12.6 31.4 13.1 32.9c1.3 3 3 5 3.7 5.3s.3.5-.5.5h-7c-.8 0-.8-.3-.2-.6.7-.6 1.1-1.9.7-2.8-.3-.8-3.6-9-4.4-11.1-.1-.4-.1-.6-.9-.6l-11.6-.1zM79.9 21.5c0-9.3-5-18.8-15.8-18.8-5.9 0-14.7 3.5-14.7 15.8 0 8.4 5.2 18.8 16.3 18.8 6.9.1 14.2-4.7 14.2-15.8m-35-1.2C44.9 9 53.4.4 65 .4c13 0 19.6 9.4 19.6 19.4 0 11.4-8.7 19.7-19.6 19.7-12.5 0-20.1-9-20.1-19.2m65.9-1.5c-1.8 1-4 1.4-6 1.4-2.9 0-3.8-.1-4-.3-.1-.1-.1-.4-.2-.7V4c.1-1.1.6-1.3 3.7-1.3 6.4 0 10.6 4.1 10.6 8.7 0 1.2-.2 2.3-.5 3.2-.5 1.9-1.9 3.3-3.6 4.2m14.5 19.8c-.7 0-1.5-.5-2.1-.9-.6-.5-1.1-1.1-1.5-1.7l-6.6-9c-1.3-1.8-2.5-3.5-3.7-5.3-.1-.1-.2-.3-.3-.4-.3-.5.1-.6.5-.9 2.1-.8 5-2.7 6.3-5.7.5-1.1.8-2.4.8-3.9 0-4-2-6.6-4.8-8-2.6-1.4-6-1.9-9.6-1.9h-9.2c-.8 0-1.1.2-.4.6 1.1.7 1.8 1.9 1.8 8.6v19.8c0 6.7-.8 8.1-1.8 8.7-.7.5-.4.5.5.5h6.7c.8 0 1.1-.1.4-.5-1.1-.7-1.8-1.9-1.8-8.7v-7.1c.1-.7.5-.8 2.7-.8 1.3 0 2.7.1 3.8.7 1.1.5 1.7 1.5 2.3 2.5s1.3 2 1.9 3c1.3 2 5 7.3 5.4 8.1 1.8 2.7 2.9 3.1 4.5 3.2s2.8-.1 3.7-.2c1.5-.2 1.2-.7.5-.7m120.6-4.8c-1.1 1.2-3.7 2.3-5.3 2.7-3 .8-7.6.7-9.7.4-1.2-.2-2.1-.8-2.5-2.3-.1-1.2-.2-2.7-.2-4.7V8.8c.1-5.7.8-6.9 1.8-7.5.6-.4.4-.6-.6-.6H223c-1 0-1.2.1-.6.6 1 .6 1.7 1.8 1.8 7.5v22.4c-.1 5.5-.8 6.8-1.8 7.4-.7.5-.4.5.5.5h9.6c2.5 0 11.8.2 12.4.2.8 0 1.1-.2 1.3-1 .2-1.2.5-3 .6-4 .1-1.1-.4-1.1-.9-.5m131.4 4.7c1-.6 1.7-1.9 1.8-7.5V8.8c-.1-5.7-.8-6.9-1.8-7.5-.6-.4-.4-.5.6-.5h6.4c1 0 1.2.1.6.5-1 .6-1.7 1.9-1.8 7.5V31c.1 5.7.8 6.9 1.8 7.5.6.4.4.5-.6.5h-6.4c-1 0-1.3 0-.6-.5" fill="currentColor"></path></svg>