<svg viewBox="0 0 77.47 30.83" xmlns="http://www.w3.org/2000/svg"><defs><style>.cls-1{fill:#fe330b;fill-rule:evenodd;}</style></defs><title>Asset 1</title><g data-name="Layer 2" id="Layer_2"><g data-name="Layer 1" id="Layer_1-2"><path d="M45.82,15,36.5,15a.52.52,0,0,1-.55-.4s-.3-1-.51-1.66c-.06-.19-.16-.24-.38-.21a2,2,0,0,1-1.19-.09,2.24,2.24,0,0,1-1-1.79c0-.75.14-1.48.14-2s-.81-.76-1.65-.83c-.41,0-.53-.06-.56-.28s.4-.32.69-.64a.92.92,0,0,0,.26-1.11,1.36,1.36,0,0,0-.95-.76c-.36-.06-.6-.25-.43-.54a1.09,1.09,0,0,1,.85-.46A5.17,5.17,0,0,0,32,4.14a3,3,0,0,1-.06-1.42,2.82,2.82,0,0,1,1.36-2A3.52,3.52,0,0,1,35,0c.27,0,.28.38.23.65a2.11,2.11,0,0,0,0,.49,6.75,6.75,0,0,0,1-.51A2.51,2.51,0,0,1,37.51,0c.47,0,.15.68.15.68A12.25,12.25,0,0,1,39.59.07c1-.21,1.08.13.95.39a1.43,1.43,0,0,1-.28.41A18.25,18.25,0,0,1,42.38.49C44,.27,45.08.33,45.13.55s-.06.34-.49.68a3.4,3.4,0,0,0-.53.46,5.56,5.56,0,0,0,1,.36,3.48,3.48,0,0,0,1.4.2,3.35,3.35,0,0,1,.87,0c.18.05.29.18.24.35a8.69,8.69,0,0,1-.75,1.56,6.41,6.41,0,0,1-2.17,2.35A5.52,5.52,0,0,1,41.11,7c-.13,0,0,.09.08.22a21.16,21.16,0,0,1,1.87,2.09,29.75,29.75,0,0,1,2.31,3.41,14.79,14.79,0,0,1,.86,1.72c.23.49-.41.51-.41.51ZM33.62,5a.51.51,0,1,1,.51.51A.51.51,0,0,1,33.62,5ZM9.85,30.18a10.69,10.69,0,0,1-3.39.65,7.49,7.49,0,0,1-4.22-1.2,6,6,0,0,1-.91-8.49,6.16,6.16,0,0,1,6.82-2.23,6.27,6.27,0,0,1,1.44.67c.65.41,1.66-.62,2-.9.19-.15.42-.23.42.28v3.47c0,.26-.18.38-.36.07a6.67,6.67,0,0,0-1.81-2.22,4.82,4.82,0,0,0-3.38-1.2A2.18,2.18,0,0,0,4.2,21a20.84,20.84,0,0,0-.41,3.94,10.1,10.1,0,0,0,.62,4A2.45,2.45,0,0,0,6.5,30.44c1,0,2.25,0,2.69-1.29a6.49,6.49,0,0,0,.07-3.44c-.15-.32-.51-.61-1.4-.65s-1-.1-1-.2.07-.19.42-.19h7.86c.16,0,.38,0,.38.19s-.18.2-.4.2a2.81,2.81,0,0,0-1.22.19,1.43,1.43,0,0,0-.62,1.38c0,.75.12,2.61.12,2.88s-.15.42-.63.3a2.34,2.34,0,0,0-1.56-.13l-1.35.5Zm9.08.37h-4.2c-.25,0-.35-.25-.12-.33a3.67,3.67,0,0,0,1.49-1A9.83,9.83,0,0,0,17.76,27c.67-1.08,3-5,4.74-7.81.14-.22.36-.5.65,0L29,28.83a3.19,3.19,0,0,0,2.24,1.3c.47.08.41.43,0,.43h-7.8c-.28,0-.26-.23,0-.26L25,30.05c.41-.09.34-.52.23-.71-.86-1.4-1.15-1.77-1.15-1.77H18.11a1.12,1.12,0,0,0-.39.74,1.71,1.71,0,0,0,.55,1.61,3.23,3.23,0,0,0,.75.33c.23.08.28.3-.09.3Zm2.14-7.95,2.7,4.51H18.35l2.72-4.51Zm25.25,7.94c.33,0,.42-.11.43-.36.06-2,.12-3.68.12-3.87s-.21-.55-.44,0a10.48,10.48,0,0,1-1.37,2A4.68,4.68,0,0,1,42.27,30a13.43,13.43,0,0,1-2.59.12c-.65,0-.79-.34-.79-.78V20.6c0-.37,0-.72.34-1a3.38,3.38,0,0,1,1.49-.3c.26,0,.46-.09.46-.28s-.15-.23-.26-.23H33.48c-.23,0-.35.09-.35.18s0,.29.47.29,1.49.26,1.49.64v9.53c0,.68-.94.68-1.67.77-.34,0-.32.35,0,.35Zm15.09,0c.33,0,.42-.11.43-.36.07-2,.12-3.68.12-3.87s-.21-.55-.44,0a10.48,10.48,0,0,1-1.37,2A4.68,4.68,0,0,1,57.36,30a13.41,13.41,0,0,1-2.59.12c-.65,0-.79-.34-.79-.78V20.6c0-.37,0-.72.34-1a3.38,3.38,0,0,1,1.49-.3c.26,0,.46-.09.46-.28s-.15-.23-.26-.23H48.57c-.23,0-.35.09-.35.18s0,.29.47.29,1.49.26,1.49.64v9.53c0,.68-.94.68-1.67.77-.34,0-.32.35,0,.35ZM63,24.72c0-3.35,3.24-6.06,7.24-6.06s7.23,2.71,7.23,6.06a5.42,5.42,0,0,1-1.66,3.67,7.59,7.59,0,0,1-5.57,2.4,7.5,7.5,0,0,1-5.19-1.95,5.76,5.76,0,0,1-2-4.12Zm4,0c0-4,1.36-5.64,3.15-5.64s3.17,1.19,3.17,5.71c0,2.36-.6,4.16-1.53,5a2.28,2.28,0,0,1-1.64.56c-1.79,0-3.15-1.91-3.15-5.65Z" class="cls-1"></path></g></g></svg>