<!DOCTYPE svg PUBLIC "-//W3C//DTD SVG 20010904//EN" "http://www.w3.org/TR/2001/REC-SVG-20010904/DTD/svg10.dtd">
<svg version="1.0" xmlns="http://www.w3.org/2000/svg"
    width="1500.000000pt" height="450.000000pt" viewBox="0 0 1500.000000 450.000000"
    preserveAspectRatio="xMidYMid meet">

    <g transform="translate(0.000000,450.000000) scale(0.100000,-0.100000)"
        fill="#000000" stroke="none">
        <path
            d="M9220 3568 c-78 -29 -149 -79 -209 -146 -29 -31 -64 -70 -78 -85 -14
-15 -90 -60 -169 -99 -80 -39 -149 -79 -154 -89 -8 -14 -3 -26 21 -54 18 -20
45 -43 60 -51 38 -19 195 -19 229 1 29 16 107 19 144 6 18 -7 26 -19 28 -42 5
-52 22 -55 138 -19 125 39 159 67 184 152 9 31 16 65 16 76 0 10 10 31 21 46
19 24 21 35 15 96 -9 89 7 98 23 14 11 -63 11 -68 -12 -107 -14 -24 -27 -68
-31 -101 -12 -107 -80 -171 -209 -197 l-56 -12 14 -28 c20 -38 19 -81 -5 -164
-11 -38 -20 -86 -20 -105 0 -52 42 -110 129 -177 42 -32 97 -79 124 -104 39
-38 47 -52 47 -82 0 -38 -3 -40 -70 -51 -31 -5 -39 -13 -63 -61 l-27 -55 26
-10 c32 -13 164 -13 164 -1 0 12 56 31 90 31 38 0 48 16 47 80 -1 88 10 129
39 140 14 6 76 10 137 10 287 0 514 33 801 115 162 47 222 71 245 99 22 27 45
18 117 -44 59 -52 185 -141 287 -204 33 -20 33 -27 4 -62 -15 -17 -38 -29 -62
-33 -33 -5 -43 -13 -62 -46 -25 -45 -19 -59 32 -68 38 -7 45 -2 69 46 23 44
40 55 99 65 60 11 61 38 3 100 -65 70 -57 87 9 22 51 -51 56 -58 53 -95 -3
-39 -4 -40 -48 -45 -25 -3 -51 -9 -58 -13 -18 -12 -45 -68 -35 -76 4 -3 54 -5
109 -3 l102 3 27 77 c15 42 40 103 56 134 16 32 29 71 29 86 0 34 -20 55 -43
46 -18 -6 -56 12 -74 35 -17 22 -16 102 2 128 8 12 29 36 46 53 31 30 31 33
27 98 l-5 67 38 -118 c61 -186 134 -276 306 -376 82 -48 123 -62 123 -43 0 5
-38 41 -85 80 -47 40 -101 94 -120 120 -43 56 -114 200 -151 303 -44 122 -89
203 -120 218 -16 7 -87 16 -159 21 -71 5 -184 19 -250 31 -162 30 -376 30
-522 0 -101 -20 -460 -63 -538 -63 -90 -1 -283 21 -327 37 -40 14 -49 23 -66
63 -11 26 -23 63 -27 82 -9 46 -48 124 -85 170 -17 21 -45 64 -63 96 -44 80
-83 104 -161 103 -36 0 -83 -8 -116 -21z m140 -78 c0 -5 -8 -10 -18 -10 -21 0
-73 -82 -107 -167 -52 -134 -54 -138 -54 -117 -2 60 82 249 125 283 28 22 54
28 54 11z m-281 -144 c9 -11 5 -15 -26 -18 -46 -6 -58 -1 -42 18 15 18 53 18
68 0z m396 -853 c51 -19 88 -200 46 -223 -28 -15 -35 -12 -17 6 35 34 7 148
-47 197 -31 27 -23 36 18 20z" />
        <path
            d="M2970 1440 l0 -470 45 0 45 0 0 213 c0 253 8 295 69 350 90 81 229
68 272 -26 17 -38 19 -68 19 -289 l0 -248 45 0 46 0 -3 279 -3 279 -30 43
c-37 53 -75 76 -149 91 -77 15 -151 -2 -211 -48 -25 -19 -47 -34 -50 -34 -3 0
-5 74 -5 165 l0 165 -45 0 -45 0 0 -470z" />
        <path
            d="M7965 1899 c-40 -15 -92 -55 -107 -82 -36 -68 -26 -162 28 -243 35
-53 36 -55 18 -69 -11 -8 -23 -15 -27 -15 -20 0 -111 -100 -135 -145 -20 -40
-25 -64 -25 -120 1 -85 18 -129 73 -189 61 -66 128 -89 245 -84 105 5 169 29
228 86 l38 37 22 -25 c12 -14 32 -38 44 -53 20 -26 26 -28 82 -25 l61 3 -75
89 c-41 48 -75 90 -75 93 0 2 7 18 16 35 14 27 43 156 44 196 0 8 -16 12 -50
12 l-50 0 0 -49 c0 -49 -16 -111 -29 -111 -9 0 -200 226 -207 244 -3 7 6 18
20 24 42 19 108 85 127 127 39 86 11 193 -62 242 -45 29 -152 41 -204 22z
m156 -108 c58 -59 28 -156 -64 -206 -36 -19 -36 -19 -58 0 -30 28 -69 109 -69
145 0 21 9 41 29 61 25 25 37 29 81 29 44 0 56 -4 81 -29z m-2 -500 l121 -145
-26 -27 c-97 -101 -258 -115 -344 -29 -70 70 -73 164 -8 258 31 45 117 108
129 95 4 -5 62 -73 128 -152z" />
        <path
            d="M8650 1440 l0 -470 45 0 45 0 0 47 0 47 33 -32 c73 -70 210 -98 311
-63 55 19 129 92 157 154 21 46 24 67 24 183 0 130 0 132 -35 200 -41 81 -95
126 -177 150 -95 28 -219 0 -285 -63 l-28 -27 0 172 0 172 -45 0 -45 0 0 -470z
m411 118 c75 -42 113 -129 113 -258 -1 -123 -43 -202 -129 -241 -155 -71 -305
53 -305 251 0 110 46 204 125 252 44 26 145 25 196 -4z" />
        <path d="M9440 1440 l0 -470 45 0 45 0 0 470 0 470 -45 0 -45 0 0 -470z" />
        <path d="M10450 1845 l0 -66 48 3 47 3 0 60 0 60 -47 3 -48 3 0 -66z" />
        <path
            d="M7348 1748 l-3 -93 -45 -5 c-44 -5 -45 -6 -45 -40 0 -35 0 -35 48
-38 l47 -3 0 -264 c0 -145 4 -275 10 -289 19 -51 94 -77 168 -57 40 11 42 14
42 50 l0 38 -50 -5 c-82 -8 -80 -16 -80 274 l0 254 60 0 60 0 0 40 0 40 -60 0
-60 0 0 95 0 95 -45 0 -44 0 -3 -92z" />
        <path
            d="M3871 1659 c-99 -19 -172 -92 -187 -186 l-7 -43 47 0 c42 0 46 2 52
28 22 92 66 122 181 122 73 0 85 -3 112 -25 58 -49 66 -143 13 -164 -15 -5
-76 -17 -137 -25 -174 -24 -242 -56 -276 -130 -24 -53 -24 -120 0 -173 34 -75
137 -121 241 -109 59 7 153 46 186 76 20 20 20 20 32 -14 18 -48 73 -68 140
-50 18 5 22 13 22 45 0 38 -1 38 -31 32 -21 -4 -34 -1 -40 8 -5 8 -9 115 -9
239 0 199 -3 230 -19 267 -41 89 -172 131 -320 102z m249 -396 c0 -72 -18
-124 -57 -160 -58 -55 -176 -79 -247 -49 -45 19 -66 52 -66 104 0 35 6 49 28
72 34 34 74 45 206 60 55 6 102 13 105 15 2 3 10 5 18 5 9 0 13 -15 13 -47z" />
        <path
            d="M4615 1655 c-33 -9 -60 -24 -82 -49 -18 -20 -35 -36 -38 -36 -3 0 -5
18 -5 40 l0 40 -45 0 -45 0 0 -340 0 -340 45 0 45 0 0 193 c0 270 21 341 113
386 24 12 58 21 75 21 32 0 32 0 32 50 0 57 -5 59 -95 35z" />
        <path
            d="M5045 1661 c-42 -10 -86 -35 -109 -60 -27 -30 -36 -26 -36 15 l0 35
-42 -3 -43 -3 0 -335 0 -335 41 -3 41 -3 5 223 c4 173 9 233 22 268 31 84 83
120 174 120 71 0 106 -22 122 -78 5 -21 10 -146 10 -284 l0 -248 44 0 44 0 4
238 c3 222 4 240 25 279 34 62 75 87 154 91 62 4 68 2 100 -26 l34 -30 3 -276
3 -276 44 0 45 0 0 258 c0 296 -7 340 -65 390 -45 40 -126 58 -196 43 -64 -14
-85 -25 -130 -67 l-35 -34 -32 39 c-47 58 -139 83 -227 62z" />
        <path
            d="M6087 1659 c-179 -42 -275 -240 -223 -460 36 -157 143 -243 301 -243
135 0 226 57 282 178 26 56 28 70 28 176 -1 124 -20 197 -68 250 -78 89 -202
127 -320 99z m194 -107 c29 -19 52 -45 69 -78 22 -43 25 -61 25 -159 0 -99 -3
-116 -26 -160 -66 -129 -245 -155 -338 -49 -82 93 -81 316 2 411 42 48 78 62
158 63 55 0 72 -4 110 -28z" />
        <path
            d="M6831 1656 c-24 -8 -61 -28 -82 -45 -21 -17 -40 -31 -43 -31 -3 0 -6
16 -6 35 0 35 0 35 -45 35 l-45 0 0 -340 0 -340 44 0 44 0 4 238 c3 263 5 271
72 330 82 72 219 61 263 -21 16 -28 18 -66 21 -289 l3 -258 45 0 45 0 -3 279
-3 279 -30 43 c-55 79 -184 117 -284 85z" />
        <path
            d="M9891 1655 c-96 -27 -155 -90 -167 -179 l-7 -46 42 0 c31 0 43 4 47
18 13 46 42 89 74 110 31 21 44 23 123 20 86 -3 90 -4 118 -36 26 -29 30 -40
27 -85 -4 -65 -13 -70 -163 -91 -133 -19 -172 -29 -215 -59 -61 -41 -75 -70
-75 -156 0 -70 3 -81 29 -115 42 -56 104 -81 196 -80 80 1 127 15 193 61 20
14 38 24 40 22 1 -2 9 -17 17 -34 19 -36 72 -53 122 -39 29 8 33 14 36 47 l3
37 -38 -3 -38 -2 -5 235 c-6 251 -12 281 -61 327 -59 54 -196 76 -298 48z
m266 -416 c-10 -124 -76 -186 -211 -196 -108 -9 -176 43 -162 125 11 73 70
104 230 122 55 6 102 13 105 15 2 3 13 5 24 5 19 0 19 -5 14 -71z" />
        <path
            d="M10951 1656 c-24 -8 -61 -28 -82 -45 -21 -17 -40 -31 -43 -31 -3 0
-6 16 -6 35 0 35 0 35 -45 35 l-45 0 0 -340 0 -340 45 0 45 0 0 205 c0 251 8
295 64 351 88 89 232 79 277 -19 17 -38 19 -68 19 -289 l0 -248 45 0 45 0 0
270 c0 247 -2 274 -19 308 -24 47 -56 77 -104 97 -54 22 -144 27 -196 11z" />
        <path
            d="M11648 1657 c-138 -39 -215 -152 -225 -327 -11 -176 54 -301 183
-356 26 -12 68 -18 125 -18 76 -1 92 2 145 29 45 23 68 44 96 85 21 30 41 70
44 88 l7 32 -47 0 c-43 0 -47 -2 -61 -37 -34 -81 -103 -118 -204 -111 -102 7
-172 76 -190 187 -6 39 -5 51 6 56 8 3 125 5 260 5 l246 0 -7 70 c-12 138 -72
239 -165 279 -64 27 -152 35 -213 18z m193 -106 c34 -21 51 -41 68 -80 12 -29
21 -65 19 -79 l-3 -27 -194 -3 c-116 -1 -198 1 -204 7 -16 16 11 94 46 136 48
59 82 75 158 75 55 0 72 -5 110 -29z" />
        <path d="M10450 1310 l0 -340 45 0 45 0 0 340 0 340 -45 0 -45 0 0 -340z" />
    </g>
</svg>