<svg viewBox="0 0 360 100.8" version="1.1" xmlns="http://www.w3.org/2000/svg" id="Layer_1">
  
  <defs>
    <style>
      .st0 {
        fill: #e41d1b;
      }
    </style>
  </defs>
  <path d="M224.9,42.6c41.3-16.5,67-26,135.1-42.6-37,2.4-118.8,8.1-175.2,19.1l40.1,23.5M96.5,97.4h54c10.7-16.2,21.3-24.1,33.7-32.9-9.4-3.6-18.8-7.1-28.4-10.5-34.5,15.2-53.6,35.6-59.3,43.4M107.1,38.5C59,55.7,32.2,74.3,14.2,97.4h59.6c5.8-8.1,27.9-31.4,69.5-47.6-11.5-3.9-31.4-10.1-36.1-11.3M131.9,2.2H0c132.9,24,197,54.9,300,98.6-8.8-6.6-150.8-90.2-168.1-98.6" class="st0"></path>
</svg>