<svg id="ed33d4be-ee85-4c8e-8596-192034bc4919" data-name="Layer 1" xmlns="http://www.w3.org/2000/svg" width="45.08mm" height="9mm" viewBox="0 0 127.8 25.51"><path d="M12.37,14.56a8,8,0,0,0-1.66-1.27c-.63-.36-1.26-.69-1.9-1l-1.9-.89a10.07,10.07,0,0,1-1.66-1A4.33,4.33,0,0,1,4.08,9.24,3,3,0,0,1,3.64,7.6a3.2,3.2,0,0,1,.23-1.23,2.74,2.74,0,0,1,.68-1,3.45,3.45,0,0,1,1.16-.68,4.87,4.87,0,0,1,1.66-.25,6.14,6.14,0,0,1,1.83.25,8.38,8.38,0,0,1,1.42.57c.4.2.73.39,1,.55a1.5,1.5,0,0,0,.6.25A.33.33,0,0,0,12.45,6a.44.44,0,0,0,.15-.25,1.49,1.49,0,0,0,.08-.41,4.73,4.73,0,0,0,0-.56c0-.23,0-.41,0-.55a2.84,2.84,0,0,0,0-.36.81.81,0,0,0-.09-.25,1.3,1.3,0,0,0-.22-.26,3,3,0,0,0-.69-.44,8.69,8.69,0,0,0-1.21-.49A10.11,10.11,0,0,0,9,2.06a8.75,8.75,0,0,0-1.52-.13,9.37,9.37,0,0,0-2.75.39,6.67,6.67,0,0,0-2.2,1.15A5.37,5.37,0,0,0,1.08,5.35,6,6,0,0,0,.56,7.89,5.78,5.78,0,0,0,1,10.27,6,6,0,0,0,2.18,12a8.15,8.15,0,0,0,1.63,1.28,18.85,18.85,0,0,0,1.89,1l1.88.88a10.68,10.68,0,0,1,1.65,1,4.43,4.43,0,0,1,1.16,1.21A3,3,0,0,1,10.83,19a3.87,3.87,0,0,1-.32,1.6,3.3,3.3,0,0,1-.9,1.19,4.21,4.21,0,0,1-1.41.74,5.71,5.71,0,0,1-1.8.27,8,8,0,0,1-2.3-.31,12.46,12.46,0,0,1-1.69-.66,10,10,0,0,1-1.15-.65,1.43,1.43,0,0,0-.7-.3.48.48,0,0,0-.24.06.51.51,0,0,0-.18.22,1.37,1.37,0,0,0-.1.41,4,4,0,0,0,0,.65,3,3,0,0,0,.1.87,1.21,1.21,0,0,0,.3.53,3.22,3.22,0,0,0,.72.51,8.27,8.27,0,0,0,1.28.58,11.41,11.41,0,0,0,1.74.48,10.85,10.85,0,0,0,2.12.19,10.36,10.36,0,0,0,3.05-.44,7.09,7.09,0,0,0,2.46-1.31,6,6,0,0,0,1.63-2.12A6.47,6.47,0,0,0,14,18.63a5.52,5.52,0,0,0-1.62-4.07Z"/><path d="M29.15,5.25a6.78,6.78,0,0,1,3.31-.74,7.06,7.06,0,0,1,3.29.69,5.47,5.47,0,0,1,2.14,1.9A8.41,8.41,0,0,1,39,10a17.58,17.58,0,0,1,.34,3.59,17.09,17.09,0,0,1-.35,3.5,9.26,9.26,0,0,1-.5,1.62L40.78,21a10.92,10.92,0,0,0,1.14-2.62,17.71,17.71,0,0,0,.65-5A17.8,17.8,0,0,0,42,8.47a9.21,9.21,0,0,0-1.84-3.58A8,8,0,0,0,37,2.68a11.71,11.71,0,0,0-4.38-.75,11.44,11.44,0,0,0-4.55.83,8.87,8.87,0,0,0-2.68,1.77l2.06,2.06A6.49,6.49,0,0,1,29.15,5.25Z"/><path d="M35.67,22a6.93,6.93,0,0,1-3.34.74A7.21,7.21,0,0,1,29,22a5.43,5.43,0,0,1-2.11-1.89,8.22,8.22,0,0,1-1.12-2.91,18.53,18.53,0,0,1-.34-3.69,16.43,16.43,0,0,1,.32-3.19L23.24,7.85q-.19.49-.36,1a17.28,17.28,0,0,0-.65,4.89,18.64,18.64,0,0,0,.6,5,9.57,9.57,0,0,0,1.82,3.62,7.86,7.86,0,0,0,3.09,2.23,11.72,11.72,0,0,0,4.44.76,11.67,11.67,0,0,0,4.56-.83A8.8,8.8,0,0,0,39,23.07L37,21A6.32,6.32,0,0,1,35.67,22Z"/><path d="M69.33,2.3a2.51,2.51,0,0,0-.46-.1,4.63,4.63,0,0,0-.71-.05,4.91,4.91,0,0,0-.73.05,2.72,2.72,0,0,0-.46.1.55.55,0,0,0-.25.17.41.41,0,0,0-.07.25v13.9a8.55,8.55,0,0,1-.38,2.67,5.08,5.08,0,0,1-1.09,1.92,4.48,4.48,0,0,1-1.74,1.16,7.07,7.07,0,0,1-4.66,0A4.6,4.6,0,0,1,57,21.18a5.15,5.15,0,0,1-1.12-2,8.75,8.75,0,0,1-.39-2.76V2.72a.41.41,0,0,0-.07-.25.48.48,0,0,0-.23-.17,2.88,2.88,0,0,0-.47-.1A4.87,4.87,0,0,0,54,2.15a4.76,4.76,0,0,0-.74.05,3,3,0,0,0-.46.1.51.51,0,0,0-.24.17.41.41,0,0,0-.07.25V16.83a10.42,10.42,0,0,0,.6,3.69,6.92,6.92,0,0,0,1.7,2.67,7.35,7.35,0,0,0,2.65,1.61,10.41,10.41,0,0,0,3.43.54,10.81,10.81,0,0,0,3.68-.58,7.39,7.39,0,0,0,2.74-1.7,7.5,7.5,0,0,0,1.73-2.76,10.59,10.59,0,0,0,.61-3.7V2.72a.41.41,0,0,0-.08-.25A.69.69,0,0,0,69.33,2.3Z"/><path d="M89.46,2.81a.89.89,0,0,0-.19-.33.7.7,0,0,0-.35-.2,2.65,2.65,0,0,0-.6-.1q-.37,0-.93,0t-.87,0a2.36,2.36,0,0,0-.56.1.74.74,0,0,0-.34.19.89.89,0,0,0-.18.32L77.81,23.92a2,2,0,0,0-.15.62.42.42,0,0,0,.12.36.87.87,0,0,0,.46.17,6.37,6.37,0,0,0,.83,0c.33,0,.6,0,.8,0a1.51,1.51,0,0,0,.48-.12.62.62,0,0,0,.25-.19.87.87,0,0,0,.14-.27L82.61,19h9.45l2,5.54a.93.93,0,0,0,.15.26.5.5,0,0,0,.24.17,2.16,2.16,0,0,0,.49.09l.87,0q.56,0,.87,0a.91.91,0,0,0,.47-.16.42.42,0,0,0,.13-.36,1.86,1.86,0,0,0-.15-.63Zm-6.1,13.81L87.28,5.28h0l4,11.34Z"/><path d="M120.4,13.42a14.42,14.42,0,0,1-.5,4,7.33,7.33,0,0,1-1.51,2.82,6,6,0,0,1-2.49,1.67,10.91,10.91,0,0,1-3.68.54h-3.11V4.77h3.08a9.81,9.81,0,0,1,3.85.65,6.78,6.78,0,0,1,2.47,1.81,7.57,7.57,0,0,1,1.4,2.67l2.21-2.85a9.07,9.07,0,0,0-1.34-1.83c-.14-.14-.29-.26-.43-.39h-.08l-.89-.76a9.41,9.41,0,0,0-2-1.05,14.57,14.57,0,0,0-5-.76h-5.15a1.24,1.24,0,0,0-.76.27,1.13,1.13,0,0,0-.36,1V23.78a1.12,1.12,0,0,0,.36.95,1.19,1.19,0,0,0,.76.28H112a15.63,15.63,0,0,0,5-.72,9.16,9.16,0,0,0,3.56-2.18,9.32,9.32,0,0,0,2.2-3.65,16,16,0,0,0,.76-5.11H120.4Z"/><path d="M127.11,5.46a3.36,3.36,0,0,0,.69-2.08,3.38,3.38,0,0,0-1-2.41,3.25,3.25,0,0,0-2.4-1,3,3,0,0,0-2.22,1,3.69,3.69,0,0,0-1,2.44h1.64a1.94,1.94,0,0,1,.55-1.26,1.61,1.61,0,0,1,2.3.07,1.76,1.76,0,0,1,.4,1.16,2.61,2.61,0,0,1-.06.53,2.2,2.2,0,0,1-.35.65l-4.48,5.78v1.59h6.53V10.22h-4.37Z"/><polygon points="38.52 18.7 35.43 15.6 33.49 17.53 36.98 21.02 39.03 23.07 41.47 25.51 43.4 23.57 40.78 20.96 38.52 18.7"/></svg>