<svg class="xt-icon w-auto h-[42px] lg:h-[53px]" fill="currentColor" viewBox="0 0 396.85 208.42" xmlns="http://www.w3.org/2000/svg"><path d="m56 157.1-22.51-6.1-3.49-.85a18.35 18.35 0 0 1 -8-4.29 9.94 9.94 0 0 1 -2.78-7.33q0-6.19 5-9a23.44 23.44 0 0 1 11.57-2.78q18.19 0 19.46 15.93h15.75a26 26 0 0 0 -4.68-15.61 29 29 0 0 0 -12.51-9.86 44 44 0 0 0 -17.44-3.35 43.43 43.43 0 0 0 -16.11 3 28.47 28.47 0 0 0 -12.2 8.91 24.6 24.6 0 0 0 -.06 28.68q4.56 6.08 15.42 8.85l11.5 3q11.38 2.91 15.42 4.42 7.46 2.79 7.46 11.13a12.23 12.23 0 0 1 -4.68 9.66q-4.66 4-14.41 4-10.23 0-16.55-4.74t-6.32-14.6h-15.84q.26 16 10.74 24.14t26.92 8.09a51.1 51.1 0 0 0 17.63-3 29.2 29.2 0 0 0 13.21-9.3q5.06-6.39 5.06-16a23.58 23.58 0 0 0 -4.55-14 24.43 24.43 0 0 0 -13.01-9z"></path><path d="m144.59 168.61a62.44 62.44 0 0 1 -1.2 13.33 15.94 15.94 0 0 1 -5.88 9.1q-4.68 3.74-14.16 3.73t-14.15-3.77a15.84 15.84 0 0 1 -5.88-9.1 62.44 62.44 0 0 1 -1.2-13.33v-52.57h-15.8v57.76q0 16.94 9.92 25.78t27.11 8.85q17.19 0 27.11-8.85t9.92-25.78v-57.76h-15.79z"></path><path d="m392.55 166.2a20.62 20.62 0 0 0 -11.88-7.58v-.12a18.72 18.72 0 0 0 12.51-18.33q0-11.38-7.2-17.76t-20.35-6.41q-13.14 0-20.35 6.38t-7.2 17.76a19.37 19.37 0 0 0 3.22 11.18 19.6 19.6 0 0 0 9.29 7.15v.12a20.68 20.68 0 0 0 -11.88 7.58 22.65 22.65 0 0 0 -4.29 14 26.79 26.79 0 0 0 4 14.79 26.13 26.13 0 0 0 11.12 9.67 40.12 40.12 0 0 0 32.1 0 26.16 26.16 0 0 0 11.17-9.63 26.87 26.87 0 0 0 4-14.79 22.59 22.59 0 0 0 -4.26-14.01zm-36.9-35.2a15.61 15.61 0 0 1 20 0q3.92 3.6 3.92 9.92t-3.86 9.6a16.51 16.51 0 0 1 -20.1 0q-3.85-3.41-3.85-9.6t3.89-9.92zm22.12 61.29q-4.68 4.37-12.14 4.36t-12.13-4.35q-4.68-4.35-4.68-12.07 0-7.2 4.74-11.37a19.55 19.55 0 0 1 24.14 0q4.74 4.17 4.74 11.37 0 7.71-4.67 12.07z"></path><path d="m236.09 182.51h-.25l-41.2-66.48h-16.69v90.24h15.04v-66.35h.38l41.08 66.35h16.68v-90.24h-15.04z"></path><path d="m313.18 152a28 28 0 0 0 -14.91-3.86 23.58 23.58 0 0 0 -11.19 2.65 19.42 19.42 0 0 0 -7.9 7.84l-.25-.25a121 121 0 0 1 2.07-14.74 25.51 25.51 0 0 1 5.18-10.87c2.57-3.15 6.25-4.74 11.06-4.74a12.39 12.39 0 0 1 9 3.29 13.54 13.54 0 0 1 3.92 8.85h14.41a23.43 23.43 0 0 0 -4-12.58 25.32 25.32 0 0 0 -9.73-8.53 28.33 28.33 0 0 0 -12.95-3q-11.76 0-19.21 6.7a38.14 38.14 0 0 0 -10.81 17.12 71.39 71.39 0 0 0 -3.35 21.93q0 21.74 7.08 34t25.15 12.19a30 30 0 0 0 15.42-3.92 26.82 26.82 0 0 0 10.36-10.81 32.35 32.35 0 0 0 3.67-15.48 33.91 33.91 0 0 0 -3.35-15.23 25.38 25.38 0 0 0 -9.67-10.56zm-5.43 38.67q-4 5.37-11.5 5.37t-11.69-5.37a20.44 20.44 0 0 1 -4.24-13.08 19.89 19.89 0 0 1 4.17-12.89q4.17-5.19 11.76-5.19c5 0 8.8 1.76 11.5 5.25a20.42 20.42 0 0 1 4 12.83 21.15 21.15 0 0 1 -4 13.07z"></path><path d="m146.05 0-52.05 90.24h104.1zm0 25.73 29.84 51.7h-59.69z"></path><path d="m302.85 80.84-35.83-35.6 35.83-35.84-9.4-9.4-35.83 35.84-35.6-35.84-9.4 9.4 35.72 35.84-35.72 35.6 9.4 9.4 35.6-35.72 35.83 35.72z"></path></svg>